<svg width="16" height="16" viewBox="0 0 16 16" fill="none" xmlns="http://www.w3.org/2000/svg">
<g clip-path="url(#clip0_1055_992)">
<path d="M8.0001 10.6667C8.73648 10.6667 9.33345 10.0697 9.33345 9.33334C9.33345 8.59696 8.73648 8 8.0001 8C7.26371 8 6.66675 8.59696 6.66675 9.33334C6.66675 10.0697 7.26371 10.6667 8.0001 10.6667Z" fill="white"/>
<path d="M15.024 2.748L13.252 0.976C13.0747 0.801469 12.8783 0.647406 12.6667 0.516656V2C12.6644 3.84003 11.1733 5.33113 9.33331 5.33334H6.66666C4.82662 5.33113 3.33553 3.84003 3.33334 2V0C1.49331 0.00221875 0.00221875 1.49331 0 3.33334V12.6667C0.00221875 14.5067 1.49331 15.9978 3.33334 16H12.6667C14.5067 15.9978 15.9978 14.5067 16 12.6667V5.10469C16.0025 4.22028 15.651 3.37166 15.024 2.748ZM8 12C6.52725 12 5.33334 10.8061 5.33334 9.33334C5.33334 7.86059 6.52725 6.66669 8 6.66669C9.47275 6.66669 10.6667 7.86059 10.6667 9.33334C10.6667 10.8061 9.47275 12 8 12Z" fill="white"/>
<path d="M6.66675 3.99997H9.3334C10.438 3.99997 11.3334 3.10453 11.3334 1.99997V0.0426562C11.1885 0.0190312 11.0421 0.00478125 10.8954 0H4.66675V2C4.66675 3.10453 5.56218 3.99997 6.66675 3.99997Z" fill="white"/>
</g>
<defs>
<clipPath id="clip0_1055_992">
<rect width="16" height="16" fill="white"/>
</clipPath>
</defs>
</svg>
