<svg width="16" height="16" viewBox="0 0 16 16" fill="none" xmlns="http://www.w3.org/2000/svg">
<g clip-path="url(#clip0_1062_1076)">
<path d="M6.5854 12.0813C7.36621 12.8627 8.63253 12.8631 9.41384 12.0822C9.41415 12.0819 9.41443 12.0817 9.41474 12.0813L11.5554 9.94069C11.8023 9.66759 11.7811 9.246 11.508 8.99906C11.2537 8.76916 10.8666 8.76956 10.6127 9L8.66209 10.9513L8.66674 0.666687C8.66671 0.298469 8.36824 0 8.00006 0C7.63187 0 7.3334 0.298469 7.3334 0.666656L7.3274 10.9387L5.3874 9C5.1269 8.73969 4.70471 8.73984 4.4444 9.00034C4.18409 9.26084 4.18424 9.68303 4.44474 9.94334L6.5854 12.0813Z" fill="#2086BF"/>
<path d="M15.3333 10.6667C14.9652 10.6667 14.6667 10.9652 14.6667 11.3334V14.0001C14.6667 14.3683 14.3682 14.6667 14 14.6667H2C1.63181 14.6667 1.33334 14.3683 1.33334 14.0001V11.3334C1.33334 10.9652 1.03487 10.6668 0.666687 10.6668C0.298469 10.6667 0 10.9652 0 11.3334V14.0001C0 15.1047 0.895437 16.0001 2 16.0001H14C15.1046 16.0001 16 15.1047 16 14.0001V11.3334C16 10.9652 15.7015 10.6667 15.3333 10.6667Z" fill="#2086BF"/>
</g>
<defs>
<clipPath id="clip0_1062_1076">
<rect width="16" height="16" fill="white"/>
</clipPath>
</defs>
</svg>
