<svg width="18" height="18" viewBox="0 0 18 18" fill="none" xmlns="http://www.w3.org/2000/svg">
<g clip-path="url(#clip0_202_210)">
<path d="M10.4999 5.25V0.345C11.1937 0.607001 11.8238 1.01348 12.3486 1.5375L14.9616 4.152C15.4862 4.67616 15.893 5.30617 16.1549 6H11.2499C11.051 6 10.8602 5.92098 10.7195 5.78033C10.5789 5.63968 10.4999 5.44891 10.4999 5.25ZM16.4999 7.86375V14.25C16.4987 15.2442 16.1032 16.1973 15.4002 16.9003C14.6972 17.6033 13.7441 17.9988 12.7499 18H5.24988C4.25568 17.9988 3.30255 17.6033 2.59954 16.9003C1.89654 16.1973 1.50107 15.2442 1.49988 14.25V3.75C1.50107 2.7558 1.89654 1.80267 2.59954 1.09966C3.30255 0.396661 4.25568 0.00119089 5.24988 0L8.63613 0C8.75838 0 8.87913 0.00975 8.99988 0.018V5.25C8.99988 5.84674 9.23693 6.41903 9.65889 6.84099C10.0808 7.26295 10.6531 7.5 11.2499 7.5H16.4819C16.4901 7.62075 16.4999 7.7415 16.4999 7.86375ZM12.5429 10.7332C12.4058 10.5893 12.2171 10.5057 12.0184 10.5008C11.8197 10.4959 11.6272 10.5701 11.4831 10.707L8.78313 13.2803C8.71098 13.3528 8.62475 13.4099 8.52974 13.4479C8.43472 13.4859 8.33294 13.504 8.23065 13.5012C8.12835 13.4984 8.02772 13.4747 7.93494 13.4315C7.84215 13.3884 7.75918 13.3267 7.69113 13.2502L6.49938 12.1898C6.42581 12.1242 6.34003 12.0737 6.24696 12.0412C6.15388 12.0088 6.05533 11.995 5.95692 12.0006C5.75818 12.012 5.5721 12.1019 5.43963 12.2505C5.37403 12.3241 5.32357 12.4098 5.29112 12.5029C5.25868 12.596 5.24488 12.6945 5.25052 12.793C5.26191 12.9917 5.35179 13.1778 5.50038 13.3102L6.65838 14.3408C7.07813 14.7606 7.64681 14.9975 8.2405 14.9999C8.83419 15.0023 9.40476 14.77 9.82788 14.3535L12.5166 11.793C12.6605 11.6559 12.7441 11.4673 12.7491 11.2686C12.754 11.0698 12.6798 10.8773 12.5429 10.7332V10.7332Z" fill="#2086BF"/>
</g>
<defs>
<clipPath id="clip0_202_210">
<rect width="18" height="18" fill="white"/>
</clipPath>
</defs>
</svg>
