<svg width="16" height="16" viewBox="0 0 16 16" fill="none" xmlns="http://www.w3.org/2000/svg">
<g clip-path="url(#clip0_81_48742)">
<path d="M0.667444 3.16715H2.49126C2.85123 4.49158 4.21668 5.27344 5.54112 4.91348C6.39175 4.68228 7.05625 4.01779 7.28744 3.16715H15.3326C15.7008 3.16715 15.9992 2.86871 15.9992 2.50056C15.9992 2.13241 15.7008 1.83397 15.3326 1.83397H7.28744C6.92748 0.509511 5.56202 -0.272348 4.23759 0.0876158C3.38695 0.318812 2.72246 0.983308 2.49126 1.83394H0.667444C0.299294 1.83394 0.000854492 2.13238 0.000854492 2.50053C0.000854492 2.86868 0.299294 3.16715 0.667444 3.16715Z" fill="#858D9D"/>
<path d="M15.3326 7.33374H13.5088C13.1496 6.0095 11.7849 5.2272 10.4606 5.58642C9.6093 5.81736 8.94424 6.48239 8.7133 7.33374H0.667444C0.299294 7.33374 0.000854492 7.63218 0.000854492 8.00033C0.000854492 8.36848 0.299294 8.66692 0.667444 8.66692H8.7133C9.07254 9.99117 10.4373 10.7735 11.7615 10.4143C12.6128 10.1833 13.2779 9.51828 13.5088 8.66692H15.3326C15.7008 8.66692 15.9992 8.36848 15.9992 8.00033C15.9992 7.63218 15.7008 7.33374 15.3326 7.33374Z" fill="#858D9D"/>
<path d="M15.3326 12.8328H7.28744C6.92748 11.5084 5.56202 10.7266 4.23759 11.0865C3.38695 11.3177 2.72246 11.9822 2.49126 12.8328H0.667444C0.299294 12.8328 0.000854492 13.1313 0.000854492 13.4994C0.000854492 13.8676 0.299294 14.166 0.667444 14.166H2.49126C2.85123 15.4904 4.21668 16.2723 5.54112 15.9123C6.39175 15.6811 7.05625 15.0167 7.28744 14.166H15.3326C15.7008 14.166 15.9992 13.8676 15.9992 13.4994C15.9992 13.1313 15.7008 12.8328 15.3326 12.8328Z" fill="#858D9D"/>
</g>
<defs>
<clipPath id="clip0_81_48742">
<rect width="16" height="16" fill="white"/>
</clipPath>
</defs>
</svg>
