<svg width="16" height="16" viewBox="0 0 16 16" fill="none" xmlns="http://www.w3.org/2000/svg">
<g clip-path="url(#clip0_1062_1623)">
<path d="M1.33334 7.33334H8.66669C9.40303 7.33334 10 6.73637 10 6V1.33334C10 0.596969 9.40303 0 8.66666 0H1.33334C0.596969 0 0 0.596969 0 1.33334V6C0 6.73637 0.596969 7.33334 1.33334 7.33334Z" fill="#858D9D"/>
<path d="M15.772 0.588C15.5242 0.220437 15.1099 6.25e-05 14.6666 0H12.6667C11.9303 0 11.3333 0.596969 11.3333 1.33334V6C11.3333 6.73637 11.9302 7.33334 12.6667 7.33334H14.6666C15.403 7.33334 16 6.73637 16 6V1.33334C16.0004 1.06766 15.921 0.807969 15.772 0.588Z" fill="#858D9D"/>
<path d="M4.07866 8.89451C3.85869 8.74551 3.599 8.66607 3.33331 8.66651H1.33331C0.596969 8.66651 0 9.26347 0 9.99985V14.6665C0 15.4029 0.596969 15.9999 1.33334 15.9999H3.33334C4.06972 15.9999 4.66669 15.4029 4.66669 14.6665V9.99985C4.66659 9.55657 4.44622 9.14232 4.07866 8.89451Z" fill="#858D9D"/>
<path d="M15.412 8.89451C15.192 8.74551 14.9323 8.66607 14.6667 8.66651H7.33334C6.59697 8.66651 6 9.26347 6 9.99985V14.6665C6 15.4029 6.59697 15.9999 7.33334 15.9999H14.6667C15.4031 15.9999 16 15.4029 16 14.6665V9.99985C15.9999 9.55657 15.7796 9.14232 15.412 8.89451Z" fill="#858D9D"/>
</g>
<defs>
<clipPath id="clip0_1062_1623">
<rect width="16" height="16" fill="white"/>
</clipPath>
</defs>
</svg>
