<svg width="24" height="24" viewBox="0 0 24 24" fill="none" xmlns="http://www.w3.org/2000/svg">
<g clip-path="url(#clip0_37_68444)">
<path d="M23.954 5.54184L15.536 13.9598C14.5974 14.8961 13.3257 15.4219 12 15.4219C10.6743 15.4219 9.40263 14.8961 8.464 13.9598L0.046 5.54184C0.032 5.69984 0 5.84284 0 5.99984V17.9998C0.00158786 19.3254 0.528882 20.5963 1.46622 21.5336C2.40356 22.471 3.67441 22.9983 5 22.9998H19C20.3256 22.9983 21.5964 22.471 22.5338 21.5336C23.4711 20.5963 23.9984 19.3254 24 17.9998V5.99984C24 5.84284 23.968 5.69984 23.954 5.54184Z" fill="#374957"/>
<path d="M14.1221 12.5458L23.2561 3.41085C22.8137 2.67717 22.1896 2.06988 21.4441 1.64758C20.6986 1.22527 19.8569 1.00219 19.0001 0.999847H5.00014C4.14336 1.00219 3.30164 1.22527 2.55617 1.64758C1.81069 2.06988 1.18662 2.67717 0.744141 3.41085L9.87814 12.5458C10.4417 13.1072 11.2047 13.4223 12.0001 13.4223C12.7956 13.4223 13.5586 13.1072 14.1221 12.5458Z" fill="#374957"/>
</g>
<defs>
<clipPath id="clip0_37_68444">
<rect width="24" height="24" fill="white"/>
</clipPath>
</defs>
</svg>
