<svg width="18" height="18" viewBox="0 0 18 18" fill="none" xmlns="http://www.w3.org/2000/svg">
<g clip-path="url(#clip0_202_246)">
<path d="M17.0304 17.0307C16.7379 17.3232 16.2624 17.3232 15.9699 17.0307L14.9094 15.9702L13.8481 17.0307C13.5601 17.3285 13.0854 17.3367 12.7876 17.0495C12.4899 16.7615 12.4816 16.2867 12.7689 15.989C12.7749 15.983 12.7809 15.9762 12.7876 15.9702L13.8481 14.9097L12.7876 13.8484C12.4899 13.5604 12.4816 13.0857 12.7689 12.7879C13.0569 12.4902 13.5316 12.4819 13.8294 12.7692C13.8354 12.7752 13.8421 12.7812 13.8481 12.7879L14.9094 13.8484L15.9699 12.7879C16.2579 12.4902 16.7326 12.4819 17.0304 12.7692C17.3281 13.0572 17.3364 13.5319 17.0491 13.8297C17.0431 13.8357 17.0371 13.8425 17.0304 13.8484L15.9699 14.9097L17.0304 15.9702C17.3244 16.2619 17.3281 16.7345 17.0364 17.0285C17.0349 17.03 17.0341 17.0315 17.0304 17.0307Z" fill="#EB3D4D"/>
<path d="M10.5262 15.0114C10.5232 12.5386 12.525 10.5316 14.997 10.5279C15.9592 10.5264 16.8967 10.8354 17.6692 11.4091C18.999 6.6204 16.1947 1.66065 11.4067 0.330897C6.61874 -0.998853 1.65974 1.80465 0.32999 6.5934C-0.99976 11.3821 1.80449 16.3426 6.59249 17.6724C8.16749 18.1096 9.83174 18.1096 11.4067 17.6724C10.8352 16.9029 10.5262 15.9699 10.5262 15.0114ZM9.74999 9.01665C9.74999 9.21615 9.67049 9.40665 9.52949 9.54765L7.27574 11.8021C6.97724 12.0901 6.50174 12.0819 6.21374 11.7834C5.93249 11.4924 5.93249 11.0304 6.21374 10.7394L8.24774 8.7054V5.2599C8.24774 4.84515 8.58374 4.5084 8.99924 4.5084C9.41399 4.5084 9.74999 4.84515 9.74999 5.2599V9.01665Z" fill="#EB3D4D"/>
</g>
<defs>
<clipPath id="clip0_202_246">
<rect width="18" height="18" fill="white"/>
</clipPath>
</defs>
</svg>
